<?xml version="1.0" encoding="UTF-8" standalone="no"?>
<svg
   xmlns:dc="http://purl.org/dc/elements/1.1/"
   xmlns:cc="http://creativecommons.org/ns#"
   xmlns:rdf="http://www.w3.org/1999/02/22-rdf-syntax-ns#"
   xmlns:svg="http://www.w3.org/2000/svg"
   xmlns="http://www.w3.org/2000/svg"
   width="62mm"
   height="62mm"
   viewBox="0 0 61.999999 62"
   version="1.1"
   id="svg8">
  <defs
     id="defs2">
    <clipPath
       clipPathUnits="userSpaceOnUse"
       id="clipPath889">
      <path
         d="M 0,612 H 792 V 0 H 0 Z"
         id="path887" />
    </clipPath>
  </defs>
  <metadata
     id="metadata5">
    <rdf:RDF>
      <cc:Work
         rdf:about="">
        <dc:format>image/svg+xml</dc:format>
        <dc:type
           rdf:resource="http://purl.org/dc/dcmitype/StillImage" />
        <dc:title></dc:title>
      </cc:Work>
    </rdf:RDF>
  </metadata>
  <g
     id="layer1"
     transform="translate(-57.641345,-147.63496)">
    <g
       id="g879"
       transform="matrix(0.35277777,0,0,-0.35277777,-5.6041135,247.80119)">
      <g
         id="g883">
        <g
           id="g885"
           clip-path="url(#clipPath889)">
          <g
             id="g891"
             transform="translate(309.47399,109.49279)"
             style="fill:#ffffff">
            <path
               d="m 0,0 v 10.074 28.046 0.016 15.588 50.515 c 0,1.647 -0.654,3.224 -1.812,4.391 l -17.129,17.113 c -1.166,1.166 -2.744,1.82 -4.391,1.82 h -3.48 -1.44 -11.291 c 0.916,4.044 2.125,8.277 3.315,12.44 3.593,12.573 6.988,24.447 2.404,30.524 -1.959,2.599 -5.266,3.916 -9.825,3.916 -4.398,0 -7.549,-1.27 -9.363,-3.774 -1.337,-1.844 -1.885,-4.254 -1.885,-7.076 0,-6.297 2.735,-14.644 5.582,-23.323 1.393,-4.25 2.794,-8.559 3.915,-12.707 h -10.834 -3.425 -1.652 c -1.647,0 -3.231,-0.654 -4.39,-1.82 L -82.822,108.63 c -1.167,-1.167 -1.821,-2.744 -1.821,-4.391 V 53.724 10.074 0 h 10.075 64.486 z m -41.673,127.563 h -1.568 c -1.155,4.367 -2.627,8.895 -4.09,13.358 -3.95,12.048 -7.682,23.427 -3.991,28.523 1.421,1.958 3.929,2.91 7.673,2.91 3.924,0 6.593,-1.008 8.159,-3.084 1.269,-1.684 1.781,-4.055 1.781,-6.88 0,-5.976 -2.289,-13.986 -4.526,-21.813 -1.244,-4.353 -2.498,-8.774 -3.438,-13.014 m 9.988,-19.142 c 0,-5.847 -4.772,-10.603 -10.637,-10.603 -5.864,0 -10.636,4.756 -10.636,10.603 0,5.423 4.119,9.857 9.391,10.48 0.186,-1.348 0.303,-2.652 0.341,-3.903 -3.255,-0.445 -5.78,-3.209 -5.78,-6.577 0,-3.675 2.998,-6.665 6.684,-6.665 3.686,0 6.687,2.99 6.687,6.665 0,3.268 -2.373,5.98 -5.488,6.547 -0.011,0.395 -0.014,0.786 -0.039,1.19 h 0.066 c 0,0.881 0.045,1.795 0.122,2.733 5.224,-0.669 9.289,-5.081 9.289,-10.47 m 23.65,-74.068 c 0,-1 -0.812,-1.809 -1.811,-1.809 h -64.023 c -1,0 -1.809,0.809 -1.809,1.809 0,0.999 0.809,1.809 1.809,1.809 h 30.658 v 24.428 2.259 h -4.97 c -7.223,0 -13.099,5.876 -13.099,13.099 v 6.323 c 0,0.749 0.607,1.356 1.357,1.356 h 6.322 c 5.965,0 11.002,-4.013 12.58,-9.478 2.349,3.531 6.359,5.864 10.908,5.864 h 6.324 c 0.748,0 1.354,-0.607 1.354,-1.355 v -6.324 c 0,-7.223 -5.876,-13.099 -13.098,-13.099 h -4.969 V 36.162 h 30.656 c 0.999,0 1.811,-0.81 1.811,-1.809 m 0,-7.335 c 0,-1 -0.812,-1.809 -1.811,-1.809 h -64.023 c -1,0 -1.809,0.809 -1.809,1.809 0,0.999 0.809,1.809 1.809,1.809 h 64.023 c 0.999,0 1.811,-0.81 1.811,-1.809 m 0,-7.335 c 0,-1 -1.137,-1.809 -2.535,-1.809 h -62.573 c -1.4,0 -2.535,0.809 -2.535,1.809 0,0.999 1.135,1.809 2.535,1.809 h 62.573 c 1.398,0 2.535,-0.81 2.535,-1.809 m 0,-7.335 c 0,-1 -1.137,-1.809 -2.535,-1.809 h -62.573 c -1.4,0 -2.535,0.809 -2.535,1.809 0,0.999 1.135,1.809 2.535,1.809 h 62.573 c 1.398,0 2.535,-0.81 2.535,-1.809 m -22.024,60.041 c 0.53,-0.529 0.53,-1.387 0,-1.916 l -8.527,-8.528 h 3.053 c 5.728,0 10.388,4.661 10.388,10.389 v 4.969 h -4.968 c -5.729,0 -10.389,-4.66 -10.389,-10.389 v -2.71 -0.343 l 8.527,8.528 c 0.53,0.529 1.387,0.529 1.916,0 m -22.585,4.517 9.433,-9.431 v 3.052 c 0,5.729 -4.662,10.39 -10.39,10.39 h -4.968 v -4.969 c 0,-5.729 4.659,-10.389 10.388,-10.389 h 3.053 l -9.431,9.431 c -0.529,0.528 -0.529,1.387 0,1.916 0.529,0.529 1.388,0.529 1.915,0"
               style="fill:#ffffff;fill-opacity:1;fill-rule:nonzero;stroke:none"
               id="path893" />
          </g>
        </g>
      </g>
    </g>
  </g>
</svg>
