<?xml version="1.0" encoding="UTF-8" standalone="no"?>
<svg
   xmlns:dc="http://purl.org/dc/elements/1.1/"
   xmlns:cc="http://creativecommons.org/ns#"
   xmlns:rdf="http://www.w3.org/1999/02/22-rdf-syntax-ns#"
   xmlns:svg="http://www.w3.org/2000/svg"
   xmlns="http://www.w3.org/2000/svg"
   xmlns:sodipodi="http://sodipodi.sourceforge.net/DTD/sodipodi-0.dtd"
   xmlns:inkscape="http://www.inkscape.org/namespaces/inkscape"
   version="1.1"
   id="svg10"
   xml:space="preserve"
   width="549.6637"
   height="232.59093"
   viewBox="0 0 549.6637 232.59093"
   sodipodi:docname="logo-catalogo.svg"
   inkscape:version="1.0.1 (3bc2e813f5, 2020-09-07)"><metadata
     id="metadata16"><rdf:RDF><cc:Work
         rdf:about=""><dc:format>image/svg+xml</dc:format><dc:type
           rdf:resource="http://purl.org/dc/dcmitype/StillImage" /><dc:title></dc:title></cc:Work></rdf:RDF></metadata><defs
     id="defs14"><clipPath
       clipPathUnits="userSpaceOnUse"
       id="clipPath26"><path
         d="M 0,612 H 792 V 0 H 0 Z"
         id="path24" /></clipPath></defs><sodipodi:namedview
     pagecolor="#ffffff"
     bordercolor="#666666"
     borderopacity="1"
     objecttolerance="10"
     gridtolerance="10"
     guidetolerance="10"
     inkscape:pageopacity="0"
     inkscape:pageshadow="2"
     inkscape:window-width="1920"
     inkscape:window-height="1017"
     id="namedview12"
     showgrid="false"
     inkscape:snap-page="true"
     inkscape:snap-grids="true"
     inkscape:snap-to-guides="true"
     inkscape:zoom="1.4142136"
     inkscape:cx="333.87243"
     inkscape:cy="134.29422"
     inkscape:window-x="-8"
     inkscape:window-y="90"
     inkscape:window-maximized="1"
     inkscape:current-layer="g20"
     fit-margin-top="0"
     fit-margin-left="0"
     fit-margin-right="0"
     fit-margin-bottom="0" /><g
     id="g18"
     inkscape:groupmode="layer"
     inkscape:label="LOGO CATALOGO TECNOLOGIAS"
     transform="matrix(1.3333333,0,0,-1.3333333,-253.33279,524.59065)"><g
       id="g20"><g
         id="g22"
         clip-path="url(#clipPath26)"
         style="fill:#ffffff"><g
           id="g28"
           transform="translate(293.04,222.5908)"
           style="fill:#ffffff"><path
             d="m 0,0 c 0,-1.751 1.387,-3.136 3.14,-3.136 h 14.763 c 1.59,0 2.855,1.262 2.855,2.851 0,1.588 -1.265,2.85 -2.855,2.85 H 6.28 v 19.933 c 0,1.753 -1.386,3.138 -3.14,3.138 C 1.387,25.636 0,24.251 0,22.498 Z m 37.46,-3.591 c 8.807,0 15.208,6.618 15.208,14.754 v 0.081 c 0,8.135 -6.321,14.672 -15.126,14.672 -8.807,0 -15.209,-6.619 -15.209,-14.753 v -0.082 c 0,-8.136 6.32,-14.672 15.127,-14.672 m 0.082,5.761 c -5.057,0 -8.643,4.087 -8.643,8.993 v 0.081 c 0,4.905 3.506,8.912 8.561,8.912 5.055,0 8.643,-4.089 8.643,-8.993 v -0.082 c 0,-4.905 -3.506,-8.911 -8.561,-8.911 m 34.095,-5.761 c 4.567,0 7.585,1.339 10.154,3.57 0.571,0.487 1.06,1.257 1.06,2.232 0,1.594 -1.345,2.901 -2.936,2.901 -0.734,0 -1.387,-0.285 -1.876,-0.694 C 76.245,2.986 74.491,2.17 71.841,2.17 c -4.895,0 -8.279,4.087 -8.279,8.993 v 0.081 c 0,4.905 3.466,8.912 8.279,8.912 2.243,0 4.078,-0.736 5.831,-2.045 0.449,-0.285 1.02,-0.612 1.876,-0.612 1.713,0 3.099,1.349 3.099,3.062 0,1.096 -0.57,1.988 -1.223,2.475 -2.364,1.743 -5.261,2.88 -9.543,2.88 -8.769,0 -14.885,-6.619 -14.885,-14.753 v -0.082 c 0,-8.216 6.239,-14.672 14.641,-14.672 m 14.751,3.154 c 0,-1.628 1.263,-2.932 2.894,-2.932 1.304,0 2.364,0.733 2.894,1.956 l 1.997,4.684 h 12.555 l 1.916,-4.481 c 0.571,-1.305 1.548,-2.159 3.016,-2.159 1.672,0 2.976,1.344 2.976,3.015 0,0.407 -0.121,0.815 -0.326,1.263 l -9.946,22.469 c -0.693,1.552 -1.916,2.491 -3.629,2.491 h -0.366 c -1.712,0 -2.975,-0.939 -3.668,-2.491 L 86.755,0.909 C 86.551,0.461 86.388,0.013 86.388,-0.437 M 96.497,8.8 100.451,18.232 104.405,8.8 Z M 119.608,0 c 0,-1.751 1.387,-3.136 3.141,-3.136 h 14.763 c 1.591,0 2.854,1.262 2.854,2.851 0,1.588 -1.263,2.85 -2.854,2.85 H 125.89 v 19.933 c 0,1.753 -1.387,3.138 -3.141,3.138 -1.754,0 -3.141,-1.385 -3.141,-3.138 z m 28.375,-3.14 h 16.02 c 1.55,0 2.814,1.224 2.814,2.773 0,1.55 -1.264,2.812 -2.814,2.812 h -12.927 v 6.012 h 10.888 c 1.551,0 2.814,1.223 2.814,2.772 0,1.549 -1.263,2.814 -2.814,2.814 h -10.888 v 5.774 H 163.8 c 1.549,0 2.812,1.224 2.812,2.773 0,1.549 -1.263,2.812 -2.812,2.812 h -15.817 c -1.75,0 -3.134,-1.385 -3.134,-3.138 V 0 c 0,-1.753 1.384,-3.14 3.134,-3.14 m 34.334,-0.398 c 6.159,0 10.472,3.17 10.472,8.834 v 0.082 c 0,4.979 -3.256,7.061 -9.043,8.572 -4.938,1.266 -6.163,1.878 -6.163,3.756 v 0.082 c 0,1.388 1.266,2.489 3.674,2.489 1.959,0 3.918,-0.693 5.997,-1.919 0.489,-0.284 0.977,-0.448 1.587,-0.448 1.628,0 2.93,1.266 2.93,2.896 0,1.219 -0.691,2.073 -1.383,2.479 -2.565,1.626 -5.58,2.52 -9.05,2.52 -5.83,0 -9.982,-3.414 -9.982,-8.589 v -0.081 c 0,-5.675 3.704,-7.267 9.452,-8.738 4.775,-1.223 5.754,-2.041 5.754,-3.632 V 4.684 c 0,-1.674 -1.551,-2.695 -4.122,-2.695 -2.775,0 -5.142,0.98 -7.298,2.572 -0.407,0.286 -0.977,0.572 -1.791,0.572 -1.627,0 -2.932,-1.266 -2.932,-2.9 0,-0.975 0.489,-1.871 1.182,-2.357 3.173,-2.276 6.962,-3.414 10.716,-3.414"
             style="fill:#ffffff;fill-opacity:1;fill-rule:nonzero;stroke:none"
             id="path30" /></g><g
           id="g32"
           transform="translate(300.7754,268.0732)"
           style="fill:#ffffff"><path
             d="m 0,0 c 0,-1.754 1.387,-3.142 3.14,-3.142 1.755,0 3.139,1.388 3.139,3.142 v 19.87 h 6.037 c 1.59,0 2.895,1.3 2.895,2.881 0,1.582 -1.305,2.881 -2.895,2.881 H -6.036 c -1.59,0 -2.896,-1.299 -2.896,-2.881 0,-1.581 1.306,-2.881 2.896,-2.881 H 0 Z m 22.916,-2.911 h 16.02 c 1.55,0 2.814,1.224 2.814,2.772 0,1.549 -1.264,2.814 -2.814,2.814 H 26.009 v 6.011 h 10.887 c 1.551,0 2.815,1.222 2.815,2.771 0,1.55 -1.264,2.814 -2.815,2.814 H 26.009 v 5.775 h 12.723 c 1.549,0 2.814,1.223 2.814,2.772 0,1.549 -1.265,2.814 -2.814,2.814 H 22.916 c -1.75,0 -3.135,-1.387 -3.135,-3.141 V 0.229 c 0,-1.753 1.385,-3.14 3.135,-3.14 m 37.553,-0.451 c 4.568,0 7.585,1.339 10.155,3.569 0.571,0.486 1.06,1.258 1.06,2.231 0,1.594 -1.346,2.903 -2.936,2.903 -0.734,0 -1.387,-0.286 -1.877,-0.695 -1.795,-1.43 -3.547,-2.249 -6.198,-2.249 -4.894,0 -8.278,4.088 -8.278,8.994 v 0.082 c 0,4.905 3.466,8.911 8.278,8.911 2.243,0 4.078,-0.737 5.832,-2.044 0.448,-0.286 1.018,-0.613 1.876,-0.613 1.713,0 3.099,1.348 3.099,3.062 0,1.096 -0.572,1.988 -1.223,2.475 -2.366,1.745 -5.261,2.88 -9.543,2.88 -8.769,0 -14.886,-6.619 -14.886,-14.753 v -0.082 c 0,-8.216 6.24,-14.671 14.641,-14.671 m 16.732,3.316 c 0,-1.711 1.38,-3.096 3.084,-3.096 1.705,0 3.084,1.385 3.084,3.096 v 15.277 l 12.59,-16.48 c 0.855,-1.101 1.748,-1.834 3.25,-1.834 h 0.203 c 1.744,0 3.123,1.387 3.123,3.14 v 22.709 c 0,1.713 -1.379,3.098 -3.084,3.098 -1.703,0 -3.084,-1.385 -3.084,-3.098 V 8.048 L 84.229,23.97 c -0.86,1.101 -1.752,1.837 -3.254,1.837 h -0.649 c -1.745,0 -3.125,-1.388 -3.125,-3.144 z m 46.067,-3.316 c 8.806,0 15.209,6.619 15.209,14.753 v 0.082 c 0,8.133 -6.321,14.671 -15.127,14.671 -8.806,0 -15.209,-6.619 -15.209,-14.753 v -0.082 c 0,-8.134 6.321,-14.671 15.127,-14.671 m 0.082,5.759 c -5.055,0 -8.643,4.088 -8.643,8.994 v 0.082 c 0,4.905 3.506,8.911 8.561,8.911 5.054,0 8.642,-4.088 8.642,-8.993 v -0.082 c 0,-4.906 -3.506,-8.912 -8.56,-8.912 m 20.733,-2.169 c 0,-1.751 1.387,-3.136 3.14,-3.136 h 14.763 c 1.59,0 2.855,1.262 2.855,2.85 0,1.589 -1.265,2.852 -2.855,2.852 h -11.623 v 19.932 c 0,1.753 -1.386,3.138 -3.14,3.138 -1.753,0 -3.14,-1.385 -3.14,-3.138 z m 37.46,-3.59 c 8.806,0 15.209,6.619 15.209,14.753 v 0.082 c 0,8.133 -6.321,14.671 -15.127,14.671 -8.807,0 -15.209,-6.619 -15.209,-14.753 v -0.082 c 0,-8.134 6.32,-14.671 15.127,-14.671 m 0.082,5.759 c -5.055,0 -8.643,4.088 -8.643,8.994 v 0.082 c 0,4.905 3.506,8.911 8.561,8.911 5.056,0 8.643,-4.088 8.643,-8.993 v -0.082 c 0,-4.906 -3.506,-8.912 -8.561,-8.912 m 34.472,-5.772 c 4.288,0 7.669,1.427 9.983,2.852 1.503,0.895 2.193,2.159 2.193,3.99 v 6.914 c 0,1.75 -1.38,3.133 -3.127,3.133 h -7.17 c -1.511,0 -2.736,-1.222 -2.736,-2.727 0,-1.505 1.225,-2.684 2.736,-2.684 h 4.246 V 4.035 c -1.592,-1.138 -3.634,-1.708 -5.92,-1.708 -5.064,0 -8.657,3.823 -8.657,9.03 v 0.081 c 0,4.873 3.634,8.946 8.207,8.946 2.695,0 4.533,-0.74 6.248,-1.976 0.447,-0.329 1.015,-0.658 1.909,-0.658 1.706,0 3.087,1.399 3.087,3.12 0,1.218 -0.69,2.069 -1.3,2.516 -2.558,1.785 -5.411,2.758 -9.739,2.758 -8.657,0 -14.977,-6.624 -14.977,-14.787 v -0.082 c 0,-8.419 6.117,-14.65 15.017,-14.65 m 18.524,3.37 c 0,-1.752 1.387,-3.137 3.141,-3.137 1.754,0 3.14,1.385 3.14,3.137 v 22.733 c 0,1.751 -1.386,3.136 -3.14,3.136 -1.754,0 -3.141,-1.385 -3.141,-3.136 z m 2.945,27.624 c 1.387,0 2.366,0.244 3.549,1.344 l 2.528,2.36 c 0.489,0.448 0.815,0.897 0.815,1.465 0,0.938 -1.957,1.873 -3.466,1.873 -1.019,0 -1.795,-0.528 -2.324,-1.384 l -2.242,-3.501 c -0.204,-0.325 -0.408,-0.731 -0.408,-1.098 0,-0.652 0.652,-1.059 1.548,-1.059 m 8.484,-27.827 c 0,-1.63 1.264,-2.934 2.893,-2.934 1.306,0 2.365,0.735 2.895,1.956 l 1.998,4.686 h 12.554 l 1.916,-4.481 c 0.571,-1.304 1.549,-2.161 3.016,-2.161 1.672,0 2.976,1.345 2.976,3.015 0,0.408 -0.122,0.815 -0.326,1.265 l -9.947,22.468 c -0.692,1.552 -1.916,2.492 -3.627,2.492 h -0.367 c -1.711,0 -2.975,-0.94 -3.668,-2.492 L 246.417,1.138 C 246.213,0.688 246.05,0.24 246.05,-0.208 m 10.108,9.235 3.955,9.434 3.953,-9.434 z m 33.053,-12.338 c 6.157,0 10.471,3.17 10.471,8.834 v 0.082 c 0,4.981 -3.256,7.062 -9.043,8.574 -4.938,1.264 -6.163,1.878 -6.163,3.756 v 0.081 c 0,1.387 1.265,2.49 3.672,2.49 1.959,0 3.919,-0.694 5.998,-1.918 0.489,-0.286 0.978,-0.449 1.587,-0.449 1.628,0 2.931,1.264 2.931,2.895 0,1.22 -0.692,2.073 -1.383,2.48 -2.564,1.626 -5.581,2.519 -9.051,2.519 -5.83,0 -9.98,-3.414 -9.98,-8.589 v -0.082 c 0,-5.674 3.703,-7.265 9.45,-8.736 4.776,-1.225 5.755,-2.04 5.755,-3.633 V 4.911 c 0,-1.674 -1.552,-2.693 -4.122,-2.693 -2.775,0 -5.142,0.978 -7.3,2.57 -0.406,0.286 -0.975,0.572 -1.789,0.572 -1.629,0 -2.932,-1.265 -2.932,-2.897 0,-0.978 0.489,-1.871 1.182,-2.359 3.174,-2.277 6.962,-3.415 10.717,-3.415"
             style="fill:#ffffff;fill-opacity:1;fill-rule:nonzero;stroke:none"
             id="path34" /></g><g
           id="g36"
           transform="translate(306.4844,315.3506)"
           style="fill:#ffffff"><path
             d="m 0,0 c 4.566,0 7.585,1.339 10.154,3.57 0.571,0.488 1.061,1.257 1.061,2.232 0,1.594 -1.346,2.901 -2.936,2.901 C 7.544,8.703 6.893,8.417 6.403,8.01 4.607,6.578 2.855,5.761 0.204,5.761 c -4.893,0 -8.278,4.088 -8.278,8.992 v 0.082 c 0,4.905 3.467,8.911 8.278,8.911 2.243,0 4.078,-0.735 5.832,-2.044 0.448,-0.286 1.019,-0.613 1.876,-0.613 1.712,0 3.1,1.349 3.1,3.063 0,1.095 -0.573,1.989 -1.225,2.474 -2.365,1.745 -5.26,2.881 -9.542,2.881 -8.768,0 -14.885,-6.618 -14.885,-14.754 V 14.672 C -14.64,6.455 -8.4,0 0,0 m 14.751,3.155 c 0,-1.63 1.265,-2.933 2.894,-2.933 1.305,0 2.365,0.733 2.894,1.956 l 1.998,4.685 h 12.555 l 1.916,-4.482 c 0.57,-1.304 1.549,-2.159 3.015,-2.159 1.672,0 2.976,1.344 2.976,3.015 0,0.408 -0.122,0.815 -0.325,1.263 l -9.947,22.47 c -0.693,1.551 -1.916,2.49 -3.627,2.49 h -0.368 c -1.711,0 -2.974,-0.939 -3.668,-2.49 L 15.118,4.5 C 14.914,4.052 14.751,3.604 14.751,3.155 m 10.109,9.236 3.954,9.433 3.954,-9.433 z M 51.555,3.363 c 0,-1.754 1.386,-3.141 3.14,-3.141 1.754,0 3.14,1.387 3.14,3.141 v 19.871 h 6.036 c 1.59,0 2.895,1.298 2.895,2.88 0,1.582 -1.305,2.88 -2.895,2.88 H 45.52 c -1.59,0 -2.896,-1.298 -2.896,-2.88 0,-1.582 1.306,-2.88 2.896,-2.88 h 6.035 z M 66.299,3.155 c 0,-1.63 1.264,-2.933 2.892,-2.933 1.306,0 2.366,0.733 2.896,1.956 l 1.997,4.685 h 12.555 l 1.916,-4.482 c 0.57,-1.304 1.549,-2.159 3.016,-2.159 1.671,0 2.975,1.344 2.975,3.015 0,0.408 -0.122,0.815 -0.325,1.263 l -9.946,22.47 c -0.693,1.551 -1.916,2.49 -3.629,2.49 H 80.28 c -1.712,0 -2.975,-0.939 -3.669,-2.49 L 66.665,4.5 C 66.461,4.052 66.299,3.604 66.299,3.155 m 10.108,9.236 3.954,9.433 3.953,-9.433 z m 3.851,19 c 1.385,0 2.364,0.244 3.547,1.342 l 2.527,2.362 c 0.489,0.447 0.816,0.894 0.816,1.465 0,0.936 -1.959,1.873 -3.466,1.873 -1.02,0 -1.793,-0.53 -2.325,-1.385 l -2.242,-3.501 c -0.204,-0.324 -0.408,-0.733 -0.408,-1.099 0,-0.651 0.653,-1.057 1.551,-1.057 M 99.52,3.591 c 0,-1.752 1.386,-3.137 3.139,-3.137 h 14.763 c 1.592,0 2.855,1.264 2.855,2.852 0,1.589 -1.263,2.85 -2.855,2.85 h -11.621 v 19.932 c 0,1.753 -1.388,3.14 -3.142,3.14 -1.753,0 -3.139,-1.387 -3.139,-3.14 z M 136.979,0 c 8.806,0 15.208,6.619 15.208,14.753 v 0.082 c 0,8.136 -6.32,14.672 -15.126,14.672 -8.806,0 -15.209,-6.618 -15.209,-14.754 V 14.672 C 121.852,6.537 128.174,0 136.979,0 m 0.082,5.761 c -5.055,0 -8.643,4.088 -8.643,8.992 v 0.082 c 0,4.905 3.506,8.911 8.561,8.911 5.056,0 8.643,-4.087 8.643,-8.993 v -0.081 c 0,-4.905 -3.506,-8.911 -8.561,-8.911 m 34.473,-5.773 c 4.287,0 7.668,1.426 9.984,2.851 1.502,0.896 2.192,2.159 2.192,3.99 v 6.915 c 0,1.749 -1.381,3.132 -3.127,3.132 h -7.171 c -1.511,0 -2.736,-1.22 -2.736,-2.726 0,-1.504 1.225,-2.685 2.736,-2.685 h 4.246 V 7.398 c -1.592,-1.137 -3.635,-1.708 -5.92,-1.708 -5.062,0 -8.657,3.824 -8.657,9.031 v 0.081 c 0,4.872 3.634,8.944 8.208,8.944 2.693,0 4.532,-0.74 6.247,-1.974 0.446,-0.33 1.017,-0.659 1.909,-0.659 1.706,0 3.087,1.4 3.087,3.12 0,1.217 -0.69,2.07 -1.3,2.515 -2.558,1.785 -5.411,2.759 -9.739,2.759 -8.656,0 -14.977,-6.625 -14.977,-14.786 V 14.64 c 0,-8.42 6.117,-14.652 15.018,-14.652 M 203.615,0 c 8.806,0 15.208,6.619 15.208,14.753 v 0.082 c 0,8.136 -6.321,14.672 -15.127,14.672 -8.805,0 -15.208,-6.618 -15.208,-14.754 V 14.672 C 188.488,6.537 194.809,0 203.615,0 m 0.081,5.761 c -5.055,0 -8.641,4.088 -8.641,8.992 v 0.082 c 0,4.905 3.506,8.911 8.56,8.911 5.055,0 8.643,-4.087 8.643,-8.993 v -0.081 c 0,-4.905 -3.506,-8.911 -8.562,-8.911 M 241.907,3.59 c 0,-1.745 1.386,-3.127 3.14,-3.127 h 7.976 c 8.946,0 15.144,6.217 15.144,14.266 v 0.082 c 0,8.049 -6.198,14.183 -15.144,14.183 h -7.976 c -1.754,0 -3.14,-1.381 -3.14,-3.127 z m 6.28,2.517 v 17.244 h 4.836 c 5.123,0 8.579,-3.556 8.579,-8.622 v -0.082 c 0,-5.067 -3.456,-8.54 -8.579,-8.54 z M 276.93,0.452 h 16.019 c 1.55,0 2.814,1.224 2.814,2.773 0,1.548 -1.264,2.812 -2.814,2.812 h -12.927 v 6.011 h 10.888 c 1.55,0 2.815,1.223 2.815,2.772 0,1.55 -1.265,2.814 -2.815,2.814 h -10.888 v 5.774 h 12.723 c 1.55,0 2.815,1.223 2.815,2.774 0,1.548 -1.265,2.812 -2.815,2.812 H 276.93 c -1.75,0 -3.135,-1.386 -3.135,-3.139 V 3.591 c 0,-1.753 1.385,-3.139 3.135,-3.139"
             style="fill:#ffffff;fill-opacity:1;fill-rule:nonzero;stroke:none"
             id="path38" /></g><g
           id="g40"
           transform="translate(274.6426,219)"
           style="fill:#ffffff"><path
             d="m 0,0 v 10.074 28.046 0.017 15.588 50.514 c 0,1.648 -0.654,3.224 -1.812,4.391 l -17.129,17.113 c -1.166,1.166 -2.744,1.82 -4.391,1.82 h -3.48 -1.44 -11.291 c 0.916,4.044 2.125,8.277 3.315,12.44 3.593,12.573 6.988,24.447 2.404,30.524 -1.959,2.599 -5.266,3.916 -9.825,3.916 -4.398,0 -7.548,-1.27 -9.363,-3.774 -1.337,-1.844 -1.885,-4.254 -1.885,-7.075 0,-6.298 2.735,-14.645 5.582,-23.323 1.393,-4.25 2.794,-8.56 3.915,-12.708 h -10.834 -3.424 -1.653 c -1.646,0 -3.23,-0.654 -4.39,-1.82 L -82.822,108.63 c -1.166,-1.167 -1.821,-2.743 -1.821,-4.391 V 53.725 10.074 0 h 10.075 64.486 z m -41.674,127.563 h -1.566 c -1.156,4.368 -2.627,8.895 -4.09,13.358 -3.951,12.049 -7.683,23.428 -3.992,28.523 1.421,1.958 3.929,2.91 7.673,2.91 3.924,0 6.593,-1.007 8.159,-3.083 1.269,-1.685 1.781,-4.056 1.781,-6.88 0,-5.977 -2.289,-13.987 -4.526,-21.814 -1.244,-4.352 -2.498,-8.773 -3.439,-13.014 m 9.989,-19.142 c 0,-5.847 -4.772,-10.603 -10.637,-10.603 -5.864,0 -10.635,4.756 -10.635,10.603 0,5.424 4.117,9.857 9.39,10.48 0.186,-1.347 0.303,-2.652 0.341,-3.903 -3.255,-0.444 -5.78,-3.209 -5.78,-6.577 0,-3.675 2.998,-6.665 6.684,-6.665 3.686,0 6.687,2.99 6.687,6.665 0,3.268 -2.373,5.98 -5.488,6.548 -0.011,0.394 -0.014,0.785 -0.039,1.189 h 0.066 c 0,0.881 0.045,1.795 0.122,2.734 5.224,-0.669 9.289,-5.081 9.289,-10.471 m 23.65,-74.067 c 0,-1 -0.812,-1.81 -1.811,-1.81 h -64.023 c -1,0 -1.809,0.81 -1.809,1.81 0,0.999 0.809,1.808 1.809,1.808 h 30.658 v 24.428 2.26 h -4.97 c -7.223,0 -13.098,5.876 -13.098,13.098 v 6.323 c 0,0.75 0.605,1.356 1.355,1.356 h 6.323 c 5.965,0 11.002,-4.013 12.58,-9.478 2.349,3.532 6.359,5.865 10.908,5.865 h 6.324 c 0.748,0 1.354,-0.608 1.354,-1.356 v -6.324 c 0,-7.223 -5.876,-13.099 -13.098,-13.099 h -4.969 V 36.162 h 30.656 c 0.999,0 1.811,-0.809 1.811,-1.808 m 0,-7.335 c 0,-1 -0.812,-1.81 -1.811,-1.81 h -64.023 c -1,0 -1.809,0.81 -1.809,1.81 0,0.999 0.809,1.808 1.809,1.808 h 64.023 c 0.999,0 1.811,-0.809 1.811,-1.808 m 0,-7.335 c 0,-1 -1.137,-1.81 -2.535,-1.81 h -62.573 c -1.4,0 -2.535,0.81 -2.535,1.81 0,0.999 1.135,1.808 2.535,1.808 h 62.573 c 1.398,0 2.535,-0.809 2.535,-1.808 m 0,-7.335 c 0,-1 -1.137,-1.81 -2.535,-1.81 h -62.573 c -1.4,0 -2.535,0.81 -2.535,1.81 0,0.999 1.135,1.808 2.535,1.808 h 62.573 c 1.398,0 2.535,-0.809 2.535,-1.808 M -30.059,72.39 c 0.53,-0.53 0.53,-1.388 0,-1.916 l -8.527,-8.529 h 3.053 c 5.728,0 10.388,4.661 10.388,10.389 v 4.97 h -4.968 c -5.729,0 -10.389,-4.66 -10.389,-10.39 v -2.71 -0.343 l 8.527,8.529 c 0.53,0.528 1.387,0.528 1.916,0 m -22.585,4.516 9.433,-9.43 v 3.051 c 0,5.729 -4.662,10.39 -10.39,10.39 h -4.968 v -4.969 c 0,-5.728 4.659,-10.388 10.388,-10.388 h 3.052 l -9.43,9.43 c -0.529,0.529 -0.529,1.387 0,1.916 0.53,0.53 1.387,0.53 1.915,0"
             style="fill:#ffffff;fill-opacity:1;fill-rule:nonzero;stroke:none"
             id="path42" /></g></g></g></g></svg>
