<?xml version="1.0" encoding="UTF-8" standalone="no"?>
<svg
   xmlns:dc="http://purl.org/dc/elements/1.1/"
   xmlns:cc="http://creativecommons.org/ns#"
   xmlns:rdf="http://www.w3.org/1999/02/22-rdf-syntax-ns#"
   xmlns:svg="http://www.w3.org/2000/svg"
   xmlns="http://www.w3.org/2000/svg"
   xmlns:sodipodi="http://sodipodi.sourceforge.net/DTD/sodipodi-0.dtd"
   xmlns:inkscape="http://www.inkscape.org/namespaces/inkscape"
   width="121.9628mm"
   height="15.350385mm"
   viewBox="0 0 121.9628 15.350385"
   version="1.1"
   id="svg8"
   inkscape:version="1.0.1 (3bc2e813f5, 2020-09-07)"
   sodipodi:docname="logo-udp.svg">
  <defs
     id="defs2" />
  <sodipodi:namedview
     id="base"
     pagecolor="#ffffff"
     bordercolor="#666666"
     borderopacity="1.0"
     inkscape:pageopacity="0.0"
     inkscape:pageshadow="2"
     inkscape:zoom="1.979899"
     inkscape:cx="184.57099"
     inkscape:cy="79.09159"
     inkscape:document-units="mm"
     inkscape:current-layer="layer1"
     inkscape:document-rotation="0"
     showgrid="false"
     fit-margin-top="0"
     fit-margin-left="0"
     fit-margin-right="0"
     fit-margin-bottom="0"
     inkscape:window-width="1920"
     inkscape:window-height="1017"
     inkscape:window-x="1912"
     inkscape:window-y="-8"
     inkscape:window-maximized="1" />
  <metadata
     id="metadata5">
    <rdf:RDF>
      <cc:Work
         rdf:about="">
        <dc:format>image/svg+xml</dc:format>
        <dc:type
           rdf:resource="http://purl.org/dc/dcmitype/StillImage" />
        <dc:title></dc:title>
      </cc:Work>
    </rdf:RDF>
  </metadata>
  <g
     inkscape:label="Layer 1"
     inkscape:groupmode="layer"
     id="layer1"
     transform="translate(-39.560267,-98.15814)">
    <g
       id="g12"
       transform="matrix(0.03527778,0,0,-0.03527778,22.37198,123.12172)"
       style="fill:#ffffff">
      <path
         d="m 1301.58,604.148 c 0,3.34 2.67,6.352 6.34,6.352 h 131.87 c 3.68,0 6.36,-3.012 6.36,-6.352 v -9.714 c 0,-3.34 -2.68,-6.36 -6.36,-6.36 h -112.45 v -81.648 h 96.05 c 3.34,0 6.37,-3.02 6.37,-6.36 v -9.726 c 0,-3.652 -3.03,-6.336 -6.37,-6.336 h -96.05 V 398.66 h 112.45 c 3.68,0 6.36,-3.027 6.36,-6.355 v -9.707 c 0,-3.34 -2.68,-6.36 -6.36,-6.36 h -131.87 c -3.67,0 -6.34,3.02 -6.34,6.36 v 221.55"
         style="fill:#ffffff;fill-opacity:1;fill-rule:nonzero;stroke:none"
         id="path14" />
      <path
         d="m 1473.88,394.969 c 1.34,2.011 3.68,6.703 4.68,8.379 1.68,2.668 5.36,3.34 9.05,1.007 0,0 14.38,-11.718 31.46,-11.718 13.71,0 21.75,7.031 21.75,16.062 0,11.723 -10.06,17.071 -29.45,26.778 -17.75,8.711 -38.16,20.41 -38.16,43.164 0,14.054 11.38,34.804 42.5,34.804 17.41,0 30.78,-6.015 37.15,-10.379 3.02,-2.011 4.02,-6.679 2.01,-10.371 l -2.68,-5.351 c -2,-3.684 -6.68,-4.688 -9.71,-3.008 0,0 -14.38,8.027 -26.77,8.027 -15.06,0 -19.07,-7.687 -19.07,-13.379 0,-11.046 11.05,-16.062 24.76,-22.765 23.1,-11.043 43.84,-21.414 43.84,-45.508 0,-19.414 -18.75,-37.832 -46.17,-37.832 -22.43,0 -36.16,9.387 -43.51,15.082 -1.68,1.336 -2.69,4.676 -1.68,7.008"
         style="fill:#ffffff;fill-opacity:1;fill-rule:nonzero;stroke:none"
         id="path16" />
      <path
         d="m 1656.59,513.445 c 20.08,0 35.8,-8.023 47.85,-23.418 2.34,-3.007 1.66,-7.031 -1.33,-9.382 l -6.37,-5.344 c -5.02,-4.696 -6.7,-1.336 -9.7,1.328 -6.7,7.707 -17.74,14.055 -30.78,14.055 -25.12,0 -44.52,-20.754 -44.52,-47.512 0,-26.785 19.07,-48.203 44.18,-48.203 20.08,0 27.78,10.039 35.47,17.402 4.01,4.016 6.36,3.34 10.04,0.676 l 3.69,-2.668 c 3.34,-2.352 4.34,-6.024 2.33,-9.363 -10.04,-16.086 -28.46,-28.137 -51.19,-28.137 -37.15,0 -68.62,29.797 -68.62,69.961 0,39.484 32.46,70.605 68.95,70.605"
         style="fill:#ffffff;fill-opacity:1;fill-rule:nonzero;stroke:none"
         id="path18" />
      <path
         d="m 1740.2,503.738 c 0,3.36 3,6.367 6.35,6.367 h 10.72 c 3.34,0 6.36,-3.007 6.36,-6.367 v -70.593 c 0,-25.45 11.36,-37.844 30.11,-37.844 25.43,0 39.81,19.094 39.81,19.094 0,7.363 0,15.046 0,89.343 0,3.36 3.03,6.367 6.37,6.367 h 10.37 c 3.36,0 6.36,-3.007 6.36,-6.367 v -121.14 c 0,-3.34 -3,-6.36 -6.36,-6.36 h -6.36 c -3.68,0 -5.02,2.348 -6.01,5.684 l -2.35,8.711 c 0,0 -15.73,-17.754 -43.51,-17.754 -38.83,0 -51.86,25.109 -51.86,60.598 v 70.261"
         style="fill:#ffffff;fill-opacity:1;fill-rule:nonzero;stroke:none"
         id="path20" />
      <path
         d="m 1994.16,456.219 c -1.01,19.426 -17.07,36.816 -37.48,36.816 -22.43,0 -39.81,-16.074 -42.17,-36.816 z m -37.48,57.226 c 35.15,0 60.58,-26.101 60.58,-61.238 0,-2.355 -0.34,-6.691 -0.68,-9.035 -0.33,-3.348 -3.02,-5.703 -6.02,-5.703 h -96.39 c 1.35,-22.403 21.08,-43.504 44.85,-43.504 14.06,0 25.43,5.371 33.12,10.047 4.71,2.676 6.7,4.355 9.38,0.656 2.01,-2.664 3.69,-5 5.7,-7.688 2.33,-3.015 3.68,-5.019 -1.34,-8.687 -8.05,-6.371 -26.1,-15.414 -49.2,-15.414 -40.49,0 -65.61,31.789 -65.61,70.293 0,37.805 25.12,70.273 65.61,70.273"
         style="fill:#ffffff;fill-opacity:1;fill-rule:nonzero;stroke:none"
         id="path22" />
      <path
         d="m 2050.69,604.148 c 0,3.34 3,6.352 6.34,6.352 h 10.37 c 3.36,0 6.37,-3.012 6.37,-6.352 v -221.55 c 0,-3.34 -3.01,-6.36 -6.37,-6.36 h -10.37 c -3.34,0 -6.34,3.02 -6.34,6.36 v 221.55"
         style="fill:#ffffff;fill-opacity:1;fill-rule:nonzero;stroke:none"
         id="path24" />
      <path
         d="m 2153.4,392.977 c 16.74,0 31.12,10.371 36.81,18.75 v 26.418 c -4.01,2.351 -13.37,5.371 -28.12,5.371 -18.73,0 -32.13,-9.387 -32.13,-26.789 0,-13.379 9.05,-23.75 23.44,-23.75 z m 8.69,68.261 c 14.4,0 28.46,-4.343 28.46,-4.343 0.33,24.753 -2.67,36.14 -21.76,36.14 -18.4,0 -34.14,-5.019 -40.15,-7.351 -3.36,-1.348 -5.36,0.332 -6.36,3.339 l -2.69,8.368 c -1.32,4.004 0.67,6.015 3.69,7.355 2,1.008 21.43,8.699 46.51,8.699 34.16,0 42.5,-17.39 42.5,-56.55 v -74.297 c 0,-3.34 -2.99,-6.36 -6.35,-6.36 h -6.36 c -3.68,0 -4.69,2.016 -5.69,5.02 l -2.67,9.043 c -7.04,-7.047 -20.75,-17.422 -41.49,-17.422 -23.44,0 -41.19,17.09 -41.19,43.848 0,25.449 19.1,44.511 53.55,44.511"
         style="fill:#ffffff;fill-opacity:1;fill-rule:nonzero;stroke:none"
         id="path26" />
      <path
         d="m 2379.93,393.965 c 24.09,0 36.48,22.09 36.48,22.09 v 66.941 c 0,0 -14.07,8.02 -32.46,8.02 -29.13,0 -43.85,-21.086 -43.85,-47.844 0,-26.113 15.4,-49.207 39.83,-49.207 z m 1,119.48 c 22.09,0 35.82,-8.699 35.82,-8.699 v 99.402 c 0,3.34 3,6.352 6.34,6.352 h 10.4 c 3.34,0 6.33,-3.012 6.33,-6.352 v -221.55 c 0,-3.34 -2.99,-6.36 -6.33,-6.36 h -7.04 c -3.02,0 -5.02,2.348 -5.69,5.352 l -2.02,9.043 c 0,0 -16.06,-17.754 -41.15,-17.754 -34.15,0 -60.92,32.129 -60.92,70.637 0,39.14 24.1,69.929 64.26,69.929"
         style="fill:#ffffff;fill-opacity:1;fill-rule:nonzero;stroke:none"
         id="path28" />
      <path
         d="m 2577.67,456.219 c -1.01,19.426 -17.07,36.816 -37.48,36.816 -22.44,0 -39.82,-16.074 -42.17,-36.816 z m -37.48,57.226 c 35.14,0 60.57,-26.101 60.57,-61.238 0,-2.355 -0.33,-6.691 -0.67,-9.035 -0.33,-3.348 -3,-5.703 -6.03,-5.703 h -96.37 c 1.33,-22.403 21.07,-43.504 44.84,-43.504 14.05,0 25.44,5.371 33.14,10.047 4.68,2.676 6.68,4.355 9.37,0.656 1.99,-2.664 3.67,-5 5.68,-7.688 2.34,-3.015 3.68,-5.019 -1.34,-8.687 -8.04,-6.371 -26.1,-15.414 -49.19,-15.414 -40.49,0 -65.61,31.789 -65.61,70.293 0,37.805 25.12,70.273 65.61,70.273"
         style="fill:#ffffff;fill-opacity:1;fill-rule:nonzero;stroke:none"
         id="path30" />
      <path
         d="m 2700.1,411.387 c 1.68,2 3.36,4.324 5.02,6.347 3.36,4.364 7.03,7.032 11.71,3.02 2.35,-2.016 26.77,-25.453 56.57,-25.453 27.11,0 44.83,17.07 44.83,36.836 0,23.078 -20.08,36.789 -58.56,52.871 -36.81,16.047 -58.9,31.125 -58.9,69.277 0,22.735 18.08,59.57 71.29,59.57 32.79,0 57.22,-17.07 57.22,-17.07 2.01,-1.004 6.02,-5.019 2.01,-11.387 -1.34,-1.992 -2.69,-4.343 -4,-6.355 -3.03,-4.68 -6.37,-6.027 -11.72,-3.02 -2.36,1.34 -23.44,15.411 -43.85,15.411 -35.47,0 -46.17,-22.762 -46.17,-36.836 0,-22.403 17.07,-35.45 45.16,-47.168 45.19,-18.407 74.3,-35.489 74.3,-74.285 0,-34.817 -33.12,-60.266 -72.29,-60.266 -39.49,0 -66.26,23.098 -70.61,27.129 -2.67,2.328 -6.03,5 -2.01,11.379"
         style="fill:#ffffff;fill-opacity:1;fill-rule:nonzero;stroke:none"
         id="path32" />
      <path
         d="m 2936.65,394.637 c 24.42,0 43.51,21.75 43.51,48.879 0,26.414 -19.09,47.839 -43.51,47.839 -24.44,0 -43.51,-21.425 -43.51,-47.839 0,-27.129 19.07,-48.879 43.51,-48.879 z m 0,118.808 c 37.15,0 66.61,-32.129 66.61,-69.929 0,-38.508 -29.46,-70.637 -66.61,-70.637 -37.15,0 -66.6,32.129 -66.6,70.637 0,37.8 29.45,69.929 66.6,69.929"
         style="fill:#ffffff;fill-opacity:1;fill-rule:nonzero;stroke:none"
         id="path34" />
      <path
         d="m 3096.6,513.445 c 20.08,0 35.8,-8.023 47.85,-23.418 2.34,-3.007 1.66,-7.031 -1.33,-9.382 l -6.37,-5.344 c -5.02,-4.696 -6.7,-1.336 -9.7,1.328 -6.7,7.707 -17.74,14.055 -30.79,14.055 -25.11,0 -44.51,-20.754 -44.51,-47.512 0,-26.785 19.07,-48.203 44.18,-48.203 20.08,0 27.78,10.039 35.47,17.402 4.01,4.016 6.35,3.34 10.04,0.676 l 3.69,-2.668 c 3.34,-2.352 4.34,-6.024 2.33,-9.363 -10.04,-16.086 -28.46,-28.137 -51.2,-28.137 -37.14,0 -68.61,29.797 -68.61,69.961 0,39.484 32.46,70.605 68.95,70.605"
         style="fill:#ffffff;fill-opacity:1;fill-rule:nonzero;stroke:none"
         id="path36" />
      <path
         d="m 3181.9,503.738 c 0,3.36 3,6.367 6.34,6.367 h 10.38 c 3.35,0 6.36,-3.007 6.36,-6.367 v -121.14 c 0,-3.34 -3.01,-6.36 -6.36,-6.36 h -10.38 c -3.34,0 -6.34,3.02 -6.34,6.36 z m -4.7,83.996 c 0,9.051 7.04,16.082 15.73,16.082 9.04,0 16.08,-7.031 16.08,-16.082 0,-8.691 -7.04,-15.714 -16.08,-15.714 -8.69,0 -15.73,7.023 -15.73,15.714"
         style="fill:#ffffff;fill-opacity:1;fill-rule:nonzero;stroke:none"
         id="path38" />
      <path
         d="m 3306.03,394.637 c 24.42,0 43.51,21.75 43.51,48.879 0,26.414 -19.09,47.839 -43.51,47.839 -24.44,0 -43.51,-21.425 -43.51,-47.839 0,-27.129 19.07,-48.879 43.51,-48.879 z m 0,118.808 c 37.14,0 66.61,-32.129 66.61,-69.929 0,-38.508 -29.47,-70.637 -66.61,-70.637 -37.14,0 -66.61,32.129 -66.61,70.637 0,37.8 29.47,69.929 66.61,69.929"
         style="fill:#ffffff;fill-opacity:1;fill-rule:nonzero;stroke:none"
         id="path40" />
      <path
         d="m 3407.41,604.148 c 0,3.34 3.01,6.352 6.35,6.352 h 10.37 c 3.36,0 6.36,-3.012 6.36,-6.352 v -221.55 c 0,-3.34 -3,-6.36 -6.36,-6.36 h -10.37 c -3.34,0 -6.35,3.02 -6.35,6.36 v 221.55"
         style="fill:#ffffff;fill-opacity:1;fill-rule:nonzero;stroke:none"
         id="path42" />
      <path
         d="m 3531.89,394.637 c 24.43,0 43.51,21.75 43.51,48.879 0,26.414 -19.08,47.839 -43.51,47.839 -24.44,0 -43.5,-21.425 -43.5,-47.839 0,-27.129 19.06,-48.879 43.5,-48.879 z m 0,118.808 c 37.15,0 66.61,-32.129 66.61,-69.929 0,-38.508 -29.46,-70.637 -66.61,-70.637 -37.14,0 -66.61,32.129 -66.61,70.637 0,37.8 29.47,69.929 66.61,69.929"
         style="fill:#ffffff;fill-opacity:1;fill-rule:nonzero;stroke:none"
         id="path44" />
      <path
         d="m 3721.6,455.215 c 0,22.09 -13.4,37.48 -33.47,37.48 -20.42,0 -35.13,-15.39 -35.13,-37.48 0,-22.07 14.71,-37.481 35.13,-37.481 20.07,0 33.47,15.411 33.47,37.481 z m -33.13,-160.957 c 22.09,0 44.85,12.371 44.85,31.789 0,4.332 -2.02,21.754 -25.43,21.754 -12.39,0 -24.77,0 -37.15,0 0,0 -22.42,-6.043 -22.42,-25.781 0,-16.063 17.38,-27.762 40.15,-27.762 z m -46.52,126.828 c 0,0 -10.71,13.719 -10.71,33.473 0,31.125 21.76,58.886 56.55,58.886 h 56.58 c 3.67,0 6.35,-2.675 6.35,-6.347 v -5.703 c 0,-2.344 -1.34,-5.34 -3.69,-5.684 l -18.06,-3.691 c 0,0 15.05,-11.043 15.05,-37.461 0,-30.469 -21.74,-56.903 -56.23,-56.903 -21.41,0 -31.78,8.36 -31.78,8.36 0,0 -14.73,-6.68 -14.73,-20.078 0,-8.36 6.02,-16.395 18.42,-16.395 h 48.19 c 28.1,0 50.19,-13.711 50.19,-42.844 0,-27.781 -28.77,-54.199 -69.28,-54.199 -44.85,0 -64.25,24.09 -64.25,46.18 0,20.078 16.07,29.121 19.4,31.117 v 1.012 c -8.7,2.324 -24.42,11.027 -24.42,31.789 0,25.429 22.42,38.488 22.42,38.488"
         style="fill:#ffffff;fill-opacity:1;fill-rule:nonzero;stroke:none"
         id="path46" />
      <path
         d="m 3783.15,503.738 c 0,3.36 3,6.367 6.34,6.367 h 10.38 c 3.36,0 6.36,-3.007 6.36,-6.367 v -121.14 c 0,-3.34 -3,-6.36 -6.36,-6.36 h -10.38 c -3.34,0 -6.34,3.02 -6.34,6.36 z m -21.75,67.617 c -1.34,2.668 0,5.333 2,6.34 l 50.2,28.114 c 2,1.347 7.03,2.023 8.69,-0.985 l 6.03,-12.051 c 1.35,-2.687 0.67,-6.046 -2.01,-7.031 l -53.87,-22.433 c -4.7,-1.993 -6.36,-1.993 -7.7,0.675 l -3.34,7.371"
         style="fill:#ffffff;fill-opacity:1;fill-rule:nonzero;stroke:none"
         id="path48" />
      <path
         d="m 3885.55,392.977 c 16.73,0 31.11,10.371 36.8,18.75 v 26.418 c -4.01,2.351 -13.38,5.371 -28.11,5.371 -18.73,0 -32.13,-9.387 -32.13,-26.789 0,-13.379 9.05,-23.75 23.44,-23.75 z m 8.69,68.261 c 14.4,0 28.46,-4.343 28.46,-4.343 0.33,24.753 -2.68,36.14 -21.76,36.14 -18.4,0 -34.14,-5.019 -40.16,-7.351 -3.35,-1.348 -5.35,0.332 -6.36,3.339 l -2.68,8.368 c -1.33,4.004 0.67,6.015 3.69,7.355 2,1.008 21.42,8.699 46.51,8.699 34.14,0 42.5,-17.39 42.5,-56.55 v -74.297 c 0,-3.34 -2.99,-6.36 -6.35,-6.36 h -6.37 c -3.67,0 -4.68,2.016 -5.69,5.02 l -2.67,9.043 c -7.03,-7.047 -20.74,-17.422 -41.49,-17.422 -23.43,0 -41.18,17.09 -41.18,43.848 0,25.449 19.09,44.511 53.55,44.511"
         style="fill:#ffffff;fill-opacity:1;fill-rule:nonzero;stroke:none"
         id="path50" />
      <path
         d="M 704.512,609.063 H 642.938 V 493.27 c 0,-30.309 -9.625,-78.563 -54.2,-78.563 -39.508,0 -39.961,39.07 -39.961,68.008 v 126.348 h -61.55 V 459.746 c 0,-53.281 24.328,-92.805 80.39,-92.805 32.149,0 58.789,14.688 77.637,37.676 h 0.906 v -32.168 h 58.352 v 236.614"
         style="fill:#ffffff;fill-opacity:1;fill-rule:nonzero;stroke:none"
         id="path52" />
      <path
         d="m 791.418,491.445 c 0,31.7 11.004,75.36 50.965,75.36 39.543,0 55.156,-42.285 55.156,-75.36 0,-33.547 -13.32,-76.738 -54.219,-76.738 -40.429,0 -51.902,44.109 -51.902,76.738 z M 899.813,372.449 h 59.738 l -0.227,335.18 h -61.543 l 0.207,-126.145 h -0.918 c -18.379,22.52 -39.961,33.075 -70.754,33.075 -72.578,0 -99.214,-57.871 -99.214,-123.114 0,-64.797 26.636,-124.504 99.214,-124.504 28.95,0 54.219,9.184 72.579,32.149 h 0.918 v -26.641"
         style="fill:#ffffff;fill-opacity:1;fill-rule:evenodd;stroke:none"
         id="path54" />
      <path
         d="m 988.113,275.965 h 61.557 v 123.594 h 0.92 c 21.58,-26.192 43.19,-32.618 69.38,-32.618 73.96,0 100.59,59.707 100.59,124.504 0,65.243 -26.63,123.114 -99.21,123.114 -36.3,0 -59.74,-16.075 -73.51,-39.024 h -0.92 v 33.528 h -58.807 z m 117.147,290.84 c 39.97,0 51,-43.66 51,-75.36 0,-32.629 -11.47,-76.738 -51.9,-76.738 -40.9,0 -54.24,43.191 -54.24,76.738 0,33.075 15.63,75.36 55.14,75.36"
         style="fill:#ffffff;fill-opacity:1;fill-rule:evenodd;stroke:none"
         id="path56" />
    </g>
  </g>
</svg>
